<svg width="1024" height="1024" viewBox="0 0 1024 1024" xmlns="http://www.w3.org/2000/svg" xmlns:xlink="http://www.w3.org/1999/xlink">
  <title>rota app icon</title>
  <desc>Minimalist open-face pocket watch: winding crown, three-band case border, faint minute track, chapter ring and hour notches seated against the inner bezel, the word rota in lowercase with the o drawn as a gear.</desc>
  <defs>
    <line id="tick" x1="512" y1="236.5" x2="512" y2="268.5"/>
    <rect id="gtooth" x="413" y="479" width="20" height="18" rx="5"/>
  </defs>

  <!-- icon background -->
  <rect x="22" y="22" width="980" height="980" rx="224" fill="#FFFFFF" stroke="#E3E7EC" stroke-width="3"/>

  <!-- winding crown -->
  <rect x="496" y="148" width="32" height="52" rx="6" fill="#2563EB"/>
  <rect x="474" y="102" width="76" height="54" rx="16" fill="#8794A3"/>
  <path d="M497 116 V142 M512 116 V142 M527 116 V142" stroke="#5F6B7A" stroke-width="5" stroke-linecap="round" fill="none"/>
  <rect x="486" y="172" width="52" height="16" rx="8" fill="#8794A3"/>

  <!-- case: outer ring and main ring -->
  <circle cx="512" cy="565" r="368" fill="#FFFFFF" stroke="#2563EB" stroke-width="10"/>
  <circle cx="512" cy="565" r="346" fill="none" stroke="#2563EB" stroke-width="24"/>

  <!-- faint minute-dot track, centered on the notch band -->
  <circle cx="512" cy="565" r="312.5" fill="none" stroke="#DEE3E9" stroke-width="8" stroke-linecap="round" stroke-dasharray="0 32.7"/>

  <!-- faint chapter ring, touching the notch inner tips -->
  <circle cx="512" cy="565" r="288" fill="none" stroke="#E9ECF0" stroke-width="5"/>

  <!-- hour notches (behind the word) -->
  <g stroke="#D2D8DF" stroke-width="11" stroke-linecap="round">
    <use xlink:href="#tick"/>
    <use xlink:href="#tick" transform="rotate(30 512 565)"/>
    <use xlink:href="#tick" transform="rotate(60 512 565)"/>
    <use xlink:href="#tick" transform="rotate(90 512 565)"/>
    <use xlink:href="#tick" transform="rotate(120 512 565)"/>
    <use xlink:href="#tick" transform="rotate(150 512 565)"/>
    <use xlink:href="#tick" transform="rotate(180 512 565)"/>
    <use xlink:href="#tick" transform="rotate(210 512 565)"/>
    <use xlink:href="#tick" transform="rotate(240 512 565)"/>
    <use xlink:href="#tick" transform="rotate(270 512 565)"/>
    <use xlink:href="#tick" transform="rotate(300 512 565)"/>
    <use xlink:href="#tick" transform="rotate(330 512 565)"/>
  </g>

  <!-- wordmark: r o t a, with the o as a gear -->
  <g transform="translate(512 565) scale(0.98) translate(-512 -563)">
    <g fill="none" stroke="#2563EB" stroke-width="30" stroke-linecap="round">
      <path d="M252 495 V632"/>
      <path d="M252 558 Q252 495 311 495"/>
      <circle cx="423" cy="563" r="56"/>
      <path d="M535 495 H607"/>
      <path d="M569 447 V598 Q569 632 603 632"/>
      <circle cx="711" cy="563" r="60"/>
      <path d="M771 495 V632"/>
    </g>
    <!-- gear teeth fused onto the o -->
    <g fill="#2563EB">
      <use xlink:href="#gtooth" transform="rotate(22.5 423 563)"/>
      <use xlink:href="#gtooth" transform="rotate(67.5 423 563)"/>
      <use xlink:href="#gtooth" transform="rotate(112.5 423 563)"/>
      <use xlink:href="#gtooth" transform="rotate(157.5 423 563)"/>
      <use xlink:href="#gtooth" transform="rotate(202.5 423 563)"/>
      <use xlink:href="#gtooth" transform="rotate(247.5 423 563)"/>
      <use xlink:href="#gtooth" transform="rotate(292.5 423 563)"/>
      <use xlink:href="#gtooth" transform="rotate(337.5 423 563)"/>
    </g>
    <!-- gear axle -->
    <circle cx="423" cy="563" r="9" fill="#8794A3"/>
  </g>
</svg>
