<svg width="1024" height="1024" viewBox="0 0 1024 1024" xmlns="http://www.w3.org/2000/svg" xmlns:xlink="http://www.w3.org/1999/xlink">
  <title>rota app icon — opalescent pocketwatch, sunrise</title>
  <desc>Pocket watch icon with layered cyan, blue, coral and orange waves filling the dial, a white rota wordmark with gear o, white notches, deep blue case with amber pinstripe, and a coral crown.</desc>
  <defs>
    <line id="tick" x1="512" y1="236.5" x2="512" y2="268.5"/>
    <rect id="gtooth" x="413" y="479" width="20" height="18" rx="5"/>
    <circle id="mdot" cx="512" cy="252.5" r="4"/>
  </defs>

  <!-- icon background -->
  <rect x="22" y="22" width="980" height="980" rx="224" fill="#FFFFFF" stroke="#E3E7EC" stroke-width="3"/>

  <!-- winding crown: coral knob, blue neck, amber collar -->
  <rect x="496" y="148" width="32" height="52" rx="6" fill="#36A3FF"/>
  <rect x="474" y="102" width="76" height="54" rx="16" fill="#FF6257"/>
  <path d="M497 116 V142 M512 116 V142 M527 116 V142" stroke="#C8483F" stroke-width="5" stroke-linecap="round" fill="none"/>
  <rect x="486" y="172" width="52" height="16" rx="8" fill="#FFA51E"/>

  <!-- dial: layered color waves, each path bounded by the face circle (no clipping needed) -->
  <circle cx="512" cy="565" r="334" fill="#C2EBFF"/>
  <path d="M223 398 A334 334 0 1 0 801 398 C660 450 360 360 223 398 Z" fill="#36A3FF"/>
  <path d="M238 757 A334 334 0 0 0 704 839 C560 690 380 660 238 757 Z" fill="#FF6257"/>
  <path d="M320 839 A334 334 0 0 0 599 888 C520 800 420 760 320 839 Z" fill="#FFA51E"/>

  <!-- minute-dot track, white -->
  <g fill="#FFFFFF" fill-opacity="0.5">
    <use xlink:href="#mdot"/>
    <use xlink:href="#mdot" transform="rotate(6 512 565)"/>
    <use xlink:href="#mdot" transform="rotate(12 512 565)"/>
    <use xlink:href="#mdot" transform="rotate(18 512 565)"/>
    <use xlink:href="#mdot" transform="rotate(24 512 565)"/>
    <use xlink:href="#mdot" transform="rotate(30 512 565)"/>
    <use xlink:href="#mdot" transform="rotate(36 512 565)"/>
    <use xlink:href="#mdot" transform="rotate(42 512 565)"/>
    <use xlink:href="#mdot" transform="rotate(48 512 565)"/>
    <use xlink:href="#mdot" transform="rotate(54 512 565)"/>
    <use xlink:href="#mdot" transform="rotate(60 512 565)"/>
    <use xlink:href="#mdot" transform="rotate(66 512 565)"/>
    <use xlink:href="#mdot" transform="rotate(72 512 565)"/>
    <use xlink:href="#mdot" transform="rotate(78 512 565)"/>
    <use xlink:href="#mdot" transform="rotate(84 512 565)"/>
    <use xlink:href="#mdot" transform="rotate(90 512 565)"/>
    <use xlink:href="#mdot" transform="rotate(96 512 565)"/>
    <use xlink:href="#mdot" transform="rotate(102 512 565)"/>
    <use xlink:href="#mdot" transform="rotate(108 512 565)"/>
    <use xlink:href="#mdot" transform="rotate(114 512 565)"/>
    <use xlink:href="#mdot" transform="rotate(120 512 565)"/>
    <use xlink:href="#mdot" transform="rotate(126 512 565)"/>
    <use xlink:href="#mdot" transform="rotate(132 512 565)"/>
    <use xlink:href="#mdot" transform="rotate(138 512 565)"/>
    <use xlink:href="#mdot" transform="rotate(144 512 565)"/>
    <use xlink:href="#mdot" transform="rotate(150 512 565)"/>
    <use xlink:href="#mdot" transform="rotate(156 512 565)"/>
    <use xlink:href="#mdot" transform="rotate(162 512 565)"/>
    <use xlink:href="#mdot" transform="rotate(168 512 565)"/>
    <use xlink:href="#mdot" transform="rotate(174 512 565)"/>
    <use xlink:href="#mdot" transform="rotate(180 512 565)"/>
    <use xlink:href="#mdot" transform="rotate(186 512 565)"/>
    <use xlink:href="#mdot" transform="rotate(192 512 565)"/>
    <use xlink:href="#mdot" transform="rotate(198 512 565)"/>
    <use xlink:href="#mdot" transform="rotate(204 512 565)"/>
    <use xlink:href="#mdot" transform="rotate(210 512 565)"/>
    <use xlink:href="#mdot" transform="rotate(216 512 565)"/>
    <use xlink:href="#mdot" transform="rotate(222 512 565)"/>
    <use xlink:href="#mdot" transform="rotate(228 512 565)"/>
    <use xlink:href="#mdot" transform="rotate(234 512 565)"/>
    <use xlink:href="#mdot" transform="rotate(240 512 565)"/>
    <use xlink:href="#mdot" transform="rotate(246 512 565)"/>
    <use xlink:href="#mdot" transform="rotate(252 512 565)"/>
    <use xlink:href="#mdot" transform="rotate(258 512 565)"/>
    <use xlink:href="#mdot" transform="rotate(264 512 565)"/>
    <use xlink:href="#mdot" transform="rotate(270 512 565)"/>
    <use xlink:href="#mdot" transform="rotate(276 512 565)"/>
    <use xlink:href="#mdot" transform="rotate(282 512 565)"/>
    <use xlink:href="#mdot" transform="rotate(288 512 565)"/>
    <use xlink:href="#mdot" transform="rotate(294 512 565)"/>
    <use xlink:href="#mdot" transform="rotate(300 512 565)"/>
    <use xlink:href="#mdot" transform="rotate(306 512 565)"/>
    <use xlink:href="#mdot" transform="rotate(312 512 565)"/>
    <use xlink:href="#mdot" transform="rotate(318 512 565)"/>
    <use xlink:href="#mdot" transform="rotate(324 512 565)"/>
    <use xlink:href="#mdot" transform="rotate(330 512 565)"/>
    <use xlink:href="#mdot" transform="rotate(336 512 565)"/>
    <use xlink:href="#mdot" transform="rotate(342 512 565)"/>
    <use xlink:href="#mdot" transform="rotate(348 512 565)"/>
    <use xlink:href="#mdot" transform="rotate(354 512 565)"/>
  </g>

  <!-- faint chapter ring, white -->
  <circle cx="512" cy="565" r="288" fill="none" stroke="#FFFFFF" stroke-opacity="0.35" stroke-width="5"/>

  <!-- hour notches, white (behind the word) -->
  <g stroke="#FFFFFF" stroke-opacity="0.65" stroke-width="11" stroke-linecap="round">
    <use xlink:href="#tick"/>
    <use xlink:href="#tick" transform="rotate(30 512 565)"/>
    <use xlink:href="#tick" transform="rotate(60 512 565)"/>
    <use xlink:href="#tick" transform="rotate(90 512 565)"/>
    <use xlink:href="#tick" transform="rotate(120 512 565)"/>
    <use xlink:href="#tick" transform="rotate(150 512 565)"/>
    <use xlink:href="#tick" transform="rotate(180 512 565)"/>
    <use xlink:href="#tick" transform="rotate(210 512 565)"/>
    <use xlink:href="#tick" transform="rotate(240 512 565)"/>
    <use xlink:href="#tick" transform="rotate(270 512 565)"/>
    <use xlink:href="#tick" transform="rotate(300 512 565)"/>
    <use xlink:href="#tick" transform="rotate(330 512 565)"/>
  </g>

  <!-- wordmark: r o t a in white, with the o as a gear -->
  <g transform="translate(512 565) scale(0.98) translate(-512 -563)">
    <g fill="none" stroke="#FFFFFF" stroke-width="30" stroke-linecap="round">
      <path d="M252 495 V632"/>
      <path d="M252 558 Q252 495 311 495"/>
      <circle cx="423" cy="563" r="56"/>
      <path d="M535 495 H607"/>
      <path d="M569 447 V598 Q569 632 603 632"/>
      <circle cx="711" cy="563" r="60"/>
      <path d="M771 495 V632"/>
    </g>
    <g fill="#FFFFFF">
      <use xlink:href="#gtooth" transform="rotate(22.5 423 563)"/>
      <use xlink:href="#gtooth" transform="rotate(67.5 423 563)"/>
      <use xlink:href="#gtooth" transform="rotate(112.5 423 563)"/>
      <use xlink:href="#gtooth" transform="rotate(157.5 423 563)"/>
      <use xlink:href="#gtooth" transform="rotate(202.5 423 563)"/>
      <use xlink:href="#gtooth" transform="rotate(247.5 423 563)"/>
      <use xlink:href="#gtooth" transform="rotate(292.5 423 563)"/>
      <use xlink:href="#gtooth" transform="rotate(337.5 423 563)"/>
    </g>
    <circle cx="423" cy="563" r="9" fill="#FFFFFF"/>
  </g>

  <!-- case: amber pinstripe outer ring, deep blue main ring -->
  <circle cx="512" cy="565" r="368" fill="none" stroke="#FFB020" stroke-width="10"/>
  <circle cx="512" cy="565" r="346" fill="none" stroke="#1A5FD6" stroke-width="24"/>
</svg>
